<?xml version="1.0" encoding="UTF-8" standalone="no"?>
<!DOCTYPE svg PUBLIC "-//W3C//DTD SVG 1.1//EN" "http://www.w3.org/Graphics/SVG/1.1/DTD/svg11.dtd">
<svg width="540pt" height="540pt" version="1.1" viewBox="0 0 540 540" xmlns="http://www.w3.org/2000/svg">
<path d="m269.99 53.594c-119.51 0-216.4 96.887-216.4 216.4 0 119.51 96.891 216.4 216.4 216.4 119.51 0 216.4-96.891 216.4-216.4 0-119.51-96.891-216.4-216.4-216.4zm-0.00391 46.07c94.238 0 170.33 76.094 170.33 170.33 0 94.238-76.094 170.33-170.33 170.33-94.238 0-170.33-76.094-170.33-170.33 0-94.238 76.094-170.33 170.33-170.33zm43.852 61.512c-7.2344 0.0039-14.168 3.1523-18.914 8.5859l-102.02 114.84c-7.5391 8.4844-9.1797 20.719-4.1797 30.848 5 10.133 15.57 16.488 27.039 16.488h54.109l-24.121 95.332c-2.8594 11.309 1.6758 23.191 11.387 29.973 9.7109 6.7812 22.664 6.9062 32.484 0.3125l118.45-77.023c10.844-7.0352 16.504-19.867 14.18-32.781-2.3203-12.914-12.023-23.078-24.738-26.113l-53.094-12.457 37.902-88.445c4.2383-9.8594 2.8359-21.234-3.625-29.746-6.4609-8.5078-16.809-13.402-27.586-13.285z"/>
</svg>


